<?xml version="1.0" standalone="no"?>
<!DOCTYPE svg PUBLIC "-//W3C//DTD SVG 20010904//EN"
 "http://www.w3.org/TR/2001/REC-SVG-20010904/DTD/svg10.dtd">
<svg version="1.0" xmlns="http://www.w3.org/2000/svg"
 width="2592.000000pt" height="2592.000000pt" viewBox="0 0 2592.000000 2592.000000"
 preserveAspectRatio="xMidYMid meet">
<metadata>
Created by potrace 1.14, written by Peter Selinger 2001-2017
</metadata>
<g transform="translate(0.000000,2592.000000) scale(0.100000,-0.100000)"
fill="#000000" stroke="none">
<path d="M2780 17734 c-36 -2 -153 -8 -260 -14 -197 -11 -556 -43 -685 -61
-338 -47 -433 -72 -542 -141 -103 -65 -163 -145 -205 -273 -20 -60 -23 -91
-23 -220 0 -106 6 -175 18 -235 82 -385 315 -899 682 -1500 261 -427 317 -525
425 -745 65 -132 210 -440 320 -685 298 -656 476 -1011 688 -1370 592 -1002
1314 -1664 2210 -2026 680 -275 1644 -431 2377 -385 902 57 1657 314 2320 791
432 310 810 722 1094 1190 124 204 313 593 558 1150 52 118 107 244 123 280
306 694 457 963 632 1126 203 190 435 189 728 -1 242 -156 426 -442 693 -1075
52 -124 145 -344 207 -488 116 -275 253 -573 341 -739 411 -778 888 -1308
1524 -1693 117 -70 442 -225 585 -278 1096 -407 2421 -403 3663 12 913 305
1630 796 2094 1431 170 234 284 473 474 999 22 61 47 129 56 151 29 75 185
519 288 820 57 165 117 341 135 390 17 50 35 101 40 115 14 45 101 283 151
411 209 543 436 938 754 1312 278 329 369 459 431 624 94 252 62 440 -106 619
-234 249 -770 398 -1600 445 -232 13 -986 7 -1245 -10 -1612 -107 -3330 -328
-4365 -561 -281 -63 -418 -95 -520 -121 -985 -253 -1732 -544 -2375 -927 -117
-70 -352 -224 -422 -277 -46 -35 -130 -58 -343 -95 -515 -88 -1010 -91 -1415
-9 -206 42 -364 96 -540 184 -150 75 -237 136 -410 286 -97 84 -184 139 -365
230 -798 401 -2478 828 -4315 1098 -371 55 -953 128 -1195 150 -58 6 -199 19
-315 30 -196 19 -575 47 -985 71 -168 11 -1247 21 -1380 14z"/>
<path d="M8280 8264 c0 -159 2 -189 16 -198 10 -8 20 -43 28 -96 7 -47 22
-116 33 -155 12 -38 26 -86 31 -105 18 -63 62 -183 71 -194 5 -6 14 -29 21
-51 7 -22 23 -60 35 -85 13 -25 28 -56 34 -70 6 -14 26 -52 46 -85 19 -33 40
-71 47 -85 7 -14 49 -79 93 -145 272 -403 631 -751 1079 -1045 13 -8 36 -24
52 -34 125 -83 270 -163 494 -272 74 -36 156 -76 181 -90 26 -13 53 -24 61
-24 8 0 37 -11 63 -25 27 -13 63 -27 79 -31 17 -3 45 -14 61 -24 17 -10 53
-24 80 -31 28 -6 61 -18 75 -26 14 -7 54 -22 90 -32 36 -11 110 -33 165 -50
55 -17 127 -37 160 -45 33 -7 94 -23 135 -34 92 -25 196 -47 315 -67 50 -9
135 -24 190 -35 55 -11 154 -24 220 -30 170 -15 215 -21 210 -31 -11 -17 101
-20 648 -17 450 2 569 6 576 16 5 8 63 18 172 28 90 8 205 24 254 34 50 10
115 22 145 25 52 6 206 38 335 70 33 9 80 20 105 26 77 20 254 69 285 80 17 6
65 21 108 34 42 12 83 27 90 32 6 6 35 16 62 22 28 7 64 21 80 31 17 10 44 21
61 24 16 4 52 18 79 31 26 14 55 25 63 25 8 0 35 11 61 24 25 14 78 39 116 56
39 17 77 35 85 40 8 5 56 30 105 55 167 86 377 208 396 231 6 8 17 14 25 14 7
0 19 6 26 13 7 7 42 33 78 58 80 54 127 90 205 152 33 27 73 59 88 70 122 94
397 371 508 512 122 156 216 292 270 390 9 17 27 50 41 75 43 77 56 103 88
175 18 39 40 88 50 110 11 22 22 54 26 70 4 17 15 46 25 67 10 20 22 56 25 80
4 23 16 63 26 87 10 24 25 89 33 144 9 68 19 105 29 113 14 9 16 40 16 198 l0
186 -319 0 c-176 0 -326 -3 -335 -6 -11 -4 -16 -19 -16 -49 0 -83 -30 -313
-49 -376 -11 -35 -22 -80 -26 -99 -9 -43 -50 -150 -81 -211 -13 -26 -24 -53
-24 -61 0 -7 -11 -30 -25 -50 -14 -20 -25 -43 -25 -50 0 -7 -14 -31 -30 -52
-17 -22 -30 -43 -30 -47 0 -8 -88 -140 -150 -224 -99 -135 -389 -424 -530
-529 -92 -68 -106 -78 -238 -167 -157 -106 -201 -133 -243 -154 -19 -9 -56
-29 -84 -45 -55 -32 -209 -109 -295 -147 -30 -14 -64 -30 -75 -36 -11 -6 -48
-21 -82 -34 -35 -13 -91 -34 -125 -47 -35 -13 -85 -32 -113 -41 -27 -10 -79
-28 -115 -41 -36 -12 -85 -27 -110 -32 -25 -6 -71 -20 -102 -31 -32 -12 -69
-21 -83 -21 -14 0 -51 -9 -83 -19 -31 -11 -86 -24 -122 -31 -36 -6 -103 -19
-150 -30 -47 -10 -112 -22 -145 -25 -33 -4 -113 -15 -177 -26 -142 -23 -549
-49 -788 -49 -218 0 -657 26 -771 45 -47 8 -137 22 -200 30 -63 8 -136 21
-164 29 -27 8 -75 17 -105 21 -30 4 -91 18 -134 31 -44 13 -90 24 -103 24 -13
0 -49 9 -81 21 -31 11 -77 25 -102 31 -25 5 -74 20 -110 32 -36 13 -87 31
-115 41 -27 9 -78 28 -112 41 -35 13 -91 34 -125 47 -35 13 -72 28 -83 34 -11
6 -45 22 -75 36 -134 60 -267 128 -390 200 -25 14 -65 37 -90 52 -54 31 -104
64 -196 128 -69 48 -82 57 -186 135 -156 116 -448 414 -560 572 -87 122 -171
261 -212 349 -6 14 -23 49 -38 79 -16 30 -28 61 -28 70 0 8 -11 38 -24 66 -13
28 -29 76 -34 106 -6 30 -18 75 -27 100 -16 44 -45 274 -45 356 0 29 -5 44
-16 48 -9 3 -159 6 -335 6 l-319 0 0 -186z"/>
</g>
</svg>
